<svg xmlns="http://www.w3.org/2000/svg" width="62" height="59" viewBox="100 0 62 59" fill="none">  
  <path fill-rule="evenodd" clip-rule="evenodd" d="M159.44 41.07C157.96 44.66 155.88 47.78 153.21 50.43C150.53 53.08 147.3 55.16 143.52 56.66C139.74 58.16 135.55 58.92 130.95 58.92C126.34 58.92 122.15 58.17 118.36 56.66C114.57 55.16 111.32 53.08 108.63 50.43C105.93 47.78 103.85 44.66 102.37 41.07C100.9 37.48 100.16 33.61 100.16 29.44C100.16 25.27 100.9 21.39 102.37 17.81C103.85 14.22 105.93 11.11 108.63 8.47C111.33 5.83 114.57 3.76 118.36 2.26C122.15 0.760002 126.35 0 130.95 0C135.55 0 139.75 0.759999 143.52 2.28C147.3 3.8 150.53 5.87 153.21 8.51C155.89 11.15 157.97 14.26 159.44 17.85C160.92 21.44 161.65 25.3 161.65 29.44C161.66 33.6 160.92 37.48 159.44 41.07Z" fill="#FF5A00"/>
  <path d="M136.06 31.72C136.07 32.23 136.48 32.63 136.99 32.63C137.04 32.63 137.09 32.62 137.14 32.62C137.57 32.54 137.9 32.16 137.9 31.71L137.84 26.12C137.83 25.61 137.42 25.2 136.91 25.21C136.4 25.22 135.99 25.63 136 26.14L136.06 31.72ZM130.08 27.33L131.04 32.76C131.13 33.26 131.61 33.59 132.11 33.5C132.61 33.41 132.94 32.94 132.85 32.43L131.89 27C131.8 26.5 131.32 26.17 130.82 26.26C130.32 26.35 129.99 26.83 130.08 27.33ZM124.79 27.35C124.31 27.52 124.06 28.04 124.23 28.52L126.1 33.79C126.25 34.22 126.69 34.47 127.12 34.39C127.17 34.38 127.22 34.37 127.27 34.35C127.75 34.18 128 33.65 127.83 33.18L125.96 27.91C125.8 27.43 125.27 27.18 124.79 27.35ZM144.08 16.45C144.58 16.36 145.06 16.69 145.15 17.19L145.47 19C145.56 19.5 145.23 19.98 144.73 20.07L115.65 25.22C115.15 25.31 114.67 24.98 114.58 24.48L114.26 22.67C114.17 22.17 114.5 21.69 115 21.6L118.18 21.04L123.6 11.1C123.84 10.66 124.4 10.49 124.85 10.73C125.3 10.97 125.46 11.53 125.22 11.98L120.5 20.63L138.57 17.42L131.16 10.92C130.78 10.58 130.74 9.99998 131.08 9.61998C131.42 9.23998 132 9.19998 132.38 9.53998L140.89 17.01L144.08 16.45ZM126.26 38.27L123.64 38.73C123.24 38.8 122.83 38.6 122.65 38.23L117.09 26.83L143.91 22.07L142.61 34.69C142.57 35.1 142.26 35.43 141.86 35.5L140.69 35.71C142.09 36.9 143.67 38.58 144.68 40.69C146.08 39.02 147.23 38.05 148.13 37.79C148.54 37.67 148.97 37.72 149.34 37.93C149.71 38.14 149.98 38.48 150.1 38.89C150.22 39.3 150.17 39.73 149.96 40.1C149.75 40.47 149.42 40.74 149.01 40.86C148.61 41.02 146.96 42.77 145.39 45.04C145.09 45.47 144.6 45.73 144.08 45.73C143.95 45.73 143.83 45.71 143.7 45.68C143.06 45.53 142.58 44.99 142.49 44.34C141.92 39.9 136.99 36.88 136.32 36.49L129.42 37.71C129.56 39.4 129.55 42.49 127.88 44.43C126.98 45.48 125.62 46.02 124.16 46.04C122.64 46.02 120.46 45.76 118.54 43.8L116.81 46.61C116.52 47.08 116.01 47.37 115.45 47.37C115.16 47.37 114.87 47.29 114.62 47.13C113.87 46.67 113.64 45.69 114.1 44.94L117.06 40.13C117.36 39.65 117.89 39.37 118.45 39.37C119.01 39.38 119.53 39.69 119.8 40.18C121.1 42.5 122.68 42.83 124.19 42.85H124.2C124.77 42.85 125.17 42.7 125.46 42.35C126.21 41.49 126.33 39.64 126.26 38.27Z" fill="white"/>
</svg>